<svg xmlns="http://www.w3.org/2000/svg" xmlns:se="http://svg-edit.googlecode.com" xmlns:xlink="http://www.w3.org/1999/xlink" xmlns:dc="http://purl.org/dc/elements/1.1/" xmlns:cc="http://creativecommons.org/ns#" xmlns:rdf="http://www.w3.org/1999/02/22-rdf-syntax-ns#" xmlns:inkscape="http://www.inkscape.org/namespaces/inkscape" width="777" height="480">                                    <title>my vector image</title>                                    <!-- Created with Vector Paint - http://www.vectorpaint.yaks.com/ https://chrome.google.com/webstore/detail/hnbpdiengicdefcjecjbnjnoifekhgdo -->                                    <rect id="backgroundrect" width="100%" height="100%" x="0" y="0" fill="#FFFFFF" stroke="none"/>                                <g class="currentLayer" style=""><title>Layer 1</title><path fill="#000000" stroke="#000000" stroke-width="2" stroke-linejoin="round" stroke-dashoffset="" fill-rule="nonzero" marker-start="" marker-mid="" marker-end="" id="svg_2" d="M421.629505444138,148.48751069793497 C399.932569221017,148.48751069793497 382.34379577990757,161.67909077876476 382.34379577990757,177.9517929461263 C382.34379577990757,183.51072086362814 384.42313226997317,188.707659027786 388.0009379715265,193.14413809771466 L382.34379577990757,205.54719786314803 L398.09455923315977,201.50638201196722 C404.65807886919913,205.19923872042162 412.7902207697171,207.41607519431844 421.629505444138,207.41607519431844 C443.3264416673002,207.41607519431844 460.91521510840835,194.22449511348842 460.91521510840835,177.9517929461263 S443.3264416673002,148.48751069793497 421.629505444138,148.48751069793497 zM415.1866490592008,189.26607732943705 L408.6259355452771,195.82117859913777 L390.58257032092564,177.77500725263997 L408.6231294231643,159.72602978403052 L415.1866490592008,166.29516166431566 L403.7068034708877,177.77500725263997 L415.1866490592008,189.26607732943705 zM435.02873856178917,195.8127602327671 L428.47083116997845,189.24924059672833 L439.95348288040344,177.77220113051646 L428.47083116997845,166.28954942007925 L435.02873856178917,159.72602978403052 L453.0721037861413,177.75817051993107 L435.02873856178917,195.8127602327671 z" style="color: rgb(0, 0, 0);" class="" fill-opacity="1"/></g></svg>